<?xml version="1.0" encoding="utf-8"?>
<!-- Generator: Adobe Illustrator 25.2.3, SVG Export Plug-In . SVG Version: 6.00 Build 0)  -->
<svg version="1.1" xmlns="http://www.w3.org/2000/svg" xmlns:xlink="http://www.w3.org/1999/xlink" x="0px" y="0px"
	 viewBox="0 0 130 130" enable-background="new 0 0 130 130" xml:space="preserve">
<title>equinor-employee-dialogue-01</title>
<desc>SVG outlined icon for use in PowerPoint and design programs. Colour and scale can be adjusted once inserted in the PowerPoint slide.</desc>
<metadata><?xpacket begin="﻿" id="W5M0MpCehiHzreSzNTczkc9d"?>
<x:xmpmeta xmlns:x="adobe:ns:meta/" x:xmptk="XMP Core 5.5.0">
 <rdf:RDF xmlns:rdf="http://www.w3.org/1999/02/22-rdf-syntax-ns#">
  <rdf:Description rdf:about=""
    xmlns:xmpMM="http://ns.adobe.com/xap/1.0/mm/"
    xmlns:xmp="http://ns.adobe.com/xap/1.0/"
    xmlns:exif="http://ns.adobe.com/exif/1.0/"
    xmlns:tiff="http://ns.adobe.com/tiff/1.0/"
    xmlns:photoshop="http://ns.adobe.com/photoshop/1.0/"
    xmlns:crs="http://ns.adobe.com/camera-raw-settings/1.0/"
    xmlns:fwr="http://ns.fotoware.com/iptcxmp-reserved/1.0/"
    xmlns:skyview="http://ns.fotoware.com/skyview/1.0/"
    xmlns:dc="http://purl.org/dc/elements/1.1/"
   xmpMM:DocumentID="xmp.did:60CDD389-421F-44DC-BF08-C7E43418C09A"
   xmpMM:OriginalDocumentID="xmp.did:60CDD389-421F-44DC-BF08-C7E43418C09A"
   xmpMM:InstanceID="xmp.iid:0DFD1B19-675B-4BF9-892A-65E08D630D2C"
   xmp:CreatorTool="FotoWare FotoStation"
   xmp:CreateDate="2022-12-05T15:53:28+01:00"
   xmp:MetadataDate="2022-12-21T10:21:18+01:00"
   exif:PixelXDimension="512"
   exif:PixelYDimension="512"
   tiff:Orientation="1"
   tiff:XResolution="0/100000"
   tiff:YResolution="0/100000"
   tiff:ResolutionUnit="2"
   photoshop:ColorMode="3"
   photoshop:SidecarForExtension="svg"
   crs:HasCrop="False"
   fwr:UniqueId="59184971A3084F43 960819C30676C8EF"
   skyview:CustomField30="Icons">
   <xmp:XMPFileStamps>
    <rdf:Seq>
     <rdf:li>2022-12-05T16:01:12+01:00</rdf:li>
     <rdf:li>2022-12-05T16:01:12+01:00</rdf:li>
     <rdf:li>2022-12-07T08:30:14+01:00</rdf:li>
     <rdf:li>2022-12-07T08:30:14+01:00</rdf:li>
     <rdf:li>2022-12-21T10:21:18+01:00</rdf:li>
     <rdf:li>2022-12-21T10:21:18+01:00</rdf:li>
    </rdf:Seq>
   </xmp:XMPFileStamps>
   <fwr:UploadInfo
    fwr:UploadedBy="christer.strandberg@fotoware.com"
    fwr:UploadedByFullName="Christer Strandberg"
    fwr:UploadTime="2022-12-07T07:30:14.276788Z"/>
   <dc:title>
    <rdf:Alt>
     <rdf:li xml:lang="x-default">equinor-employee-dialogue-01</rdf:li>
    </rdf:Alt>
   </dc:title>
   <dc:description>
    <rdf:Alt>
     <rdf:li xml:lang="x-default">SVG outlined icon for use in PowerPoint and design programs. Colour and scale can be adjusted once inserted in the PowerPoint slide.</rdf:li>
    </rdf:Alt>
   </dc:description>
   <dc:rights>
    <rdf:Alt>
     <rdf:li xml:lang="x-default">Equinor</rdf:li>
    </rdf:Alt>
   </dc:rights>
  </rdf:Description>
 </rdf:RDF>
</x:xmpmeta>
                                                                                                    
                                                                                                    
                                                                                                    
                                                                                                    
                                                                                                    
                                                                                                    
                                                                                                    
                                                                                                    
                                                                                                    
                                                                                                    
                                                                                                    
                                                                                                    
                                                                                                    
                                                                                                    
                                                                                                    
                                                                                                    
                                                                                                    
                                                                                               
<?xpacket end="w"?></metadata>
<g id="guides">
</g>
<g id="artwork">
	<g>
		<path fill="#243746" d="M33.916,61.833c3.806-2.242,6.372-6.372,6.372-11.1c0-7.106-5.781-12.887-12.887-12.887
			s-12.887,5.781-12.887,12.887c0,4.728,2.567,8.858,6.372,11.1c-8.033,3.056-14.231,11.64-15.671,22.626
			c-0.107,0.821,0.471,1.575,1.292,1.683c0.066,0.009,0.132,0.013,0.197,0.013c0.742,0,1.386-0.55,1.485-1.305
			C9.802,72.548,17.881,63.62,27.401,63.62S45,72.548,46.613,84.85c0.108,0.821,0.865,1.4,1.682,1.292
			c0.822-0.107,1.4-0.861,1.292-1.683C48.147,73.473,41.948,64.889,33.916,61.833z M17.514,50.733c0-5.452,4.436-9.887,9.887-9.887
			s9.887,4.436,9.887,9.887s-4.436,9.887-9.887,9.887S17.514,56.185,17.514,50.733z"/>
		<path fill="#243746" d="M124.77,95.585c-1.44-10.986-7.639-19.57-15.672-22.626c3.806-2.243,6.372-6.373,6.372-11.101
			c0-7.106-5.781-12.887-12.887-12.887s-12.887,5.781-12.887,12.887c0,4.728,2.567,8.858,6.372,11.101
			c-8.032,3.056-14.231,11.64-15.672,22.626c-0.107,0.821,0.471,1.575,1.292,1.683c0.819,0.104,1.574-0.472,1.682-1.292
			c1.613-12.302,9.692-21.229,19.212-21.229s17.599,8.928,19.212,21.229c0.099,0.755,0.744,1.305,1.485,1.305
			c0.065,0,0.131-0.004,0.197-0.013C124.299,97.16,124.877,96.406,124.77,95.585z M92.696,61.858c0-5.452,4.436-9.887,9.887-9.887
			s9.887,4.436,9.887,9.887c0,5.452-4.436,9.888-9.887,9.888S92.696,67.311,92.696,61.858z"/>
		<path fill="#243746" d="M86.289,67.995c0.24,0,0.481-0.058,0.702-0.174c0.491-0.26,0.798-0.771,0.798-1.326V49.194
			c0-2.481-2.019-4.5-4.5-4.5h-9.843V37.81c0-2.481-2.019-4.5-4.5-4.5H46.26c-2.481,0-4.5,2.019-4.5,4.5v17.3
			c0,0.556,0.307,1.066,0.798,1.326c0.22,0.117,0.461,0.174,0.702,0.174c0.295,0,0.59-0.087,0.844-0.26l5.181-3.526h6.818v6.885
			c0,2.481,2.019,4.5,4.5,4.5h19.661l5.181,3.526C85.698,67.908,85.993,67.995,86.289,67.995z M48.823,49.824
			c-0.301,0-0.595,0.09-0.844,0.26l-3.219,2.191V37.81c0-0.827,0.673-1.5,1.5-1.5h22.686c0.827,0,1.5,0.673,1.5,1.5v10.515
			c0,0.827-0.673,1.5-1.5,1.5H48.823z M84.789,63.66l-3.219-2.191c-0.249-0.169-0.542-0.26-0.844-0.26H60.603
			c-0.827,0-1.5-0.673-1.5-1.5v-6.885h9.843c2.481,0,4.5-2.019,4.5-4.5v-0.63h9.843c0.827,0,1.5,0.673,1.5,1.5V63.66z"/>
	</g>
</g>
</svg>
